STARTFONT 2.1
FONT jis.jis6600.24
SIZE 24 72 72
FONTBOUNDINGBOX 24 24 0 -3
STARTPROPERTIES 4
FONT_DESCENT 3
FONT_ASCENT 21
DEFAULT_CHAR 2
COPYRIGHT "Copyright (c) 1992 AT&T - All rights reserved."
ENDPROPERTIES
CHARS 204
STARTCHAR ch-2
ENCODING 2
SWIDTH 1000 0
DWIDTH 24 0
BBX 24 24 0 -3
BITMAP
040060
07fff0
060060
060060
060060
07ffe0
060060
060060
060060
07ffe0
000000
00c000
23e406
3c07ff
300606
300606
300606
300606
30c606
370606
fc063e
70060c
400600
000600
ENDCHAR
STARTCHAR ch-3
ENCODING 3
SWIDTH 1000 0
DWIDTH 24 0
BBX 24 24 0 -3
BITMAP
020030
03fff8
030030
030030
03fff0
030030
030030
03fff0
000000
100006
1fffff
180000
180e00
180c00
180c00
181c00
181a00
301900
303180
2030c0
606070
40c03e
81801c
06000c
ENDCHAR
STARTCHAR ch-6
ENCODING 6
SWIDTH 1000 0
DWIDTH 24 0
BBX 24 24 0 -3
BITMAP
080030
0ffff8
0c0030
0c0030
0c0030
0ffff0
0c0030
0c0030
0c0030
0ffff0
0c0030
000000
0e0700
0c0610
0c661c
0ff638
0c0660
0c0780
0c0602
0c0602
0c7602
ff8603
7c07ff
4003fe
ENDCHAR
STARTCHAR ch-7
ENCODING 7
SWIDTH 1000 0
DWIDTH 24 0
BBX 24 24 0 -3
BITMAP
080030
0ffff8
0c0030
0c0030
0c0030
0ffff0
0c0030
0c0030
0c0030
0ffff0
0c6030
01f1c0
078180
398180
018186
ffffff
018180
018180
030180
030180
060180
0c0180
180180
600180
ENDCHAR
STARTCHAR ch-10
ENCODING 10
SWIDTH 1000 0
DWIDTH 24 0
BBX 24 24 0 -3
BITMAP
040060
07fff0
060060
060060
07ffe0
060060
060060
060060
07ffe0
000000
000006
ffffff
001800
001800
001818
3ffffc
003400
006200
006300
00c180
0180e0
03007e
0c003c
70000c
ENDCHAR
STARTCHAR ch-12
ENCODING 12
SWIDTH 1000 0
DWIDTH 24 0
BBX 24 24 0 -3
BITMAP
040060
07fff0
060060
060060
060060
07ffe0
060060
060060
060060
07ffe0
060060
000000
20000c
3ffffe
30000c
30000c
30000c
3ffffc
30000c
30000c
30000c
3ffffc
30000c
30000c
ENDCHAR
STARTCHAR ch-14
ENCODING 14
SWIDTH 1000 0
DWIDTH 24 0
BBX 24 24 0 -3
BITMAP
000406
40c7ff
7fe606
60c606
60c606
60c606
60c606
60c7fe
7fc606
60c606
60c606
60c606
60c606
60c7fe
7fc606
60c606
600606
000606
000c06
000c06
001806
003006
00603e
01800c
ENDCHAR
STARTCHAR ch-15
ENCODING 15
SWIDTH 1000 0
DWIDTH 24 0
BBX 24 24 0 -3
BITMAP
000380
103fc0
1ff000
183000
181800
18180c
1ffffe
180e00
180700
180382
18e1c2
ff00f3
78003f
40000e
07ffe0
060060
060060
060060
07ffe0
060060
060060
060060
07ffe0
060060
ENDCHAR
STARTCHAR ch-19
ENCODING 19
SWIDTH 1000 0
DWIDTH 24 0
BBX 24 24 0 -3
BITMAP
040060
07fff0
060060
060060
060060
07ffe0
060060
060060
060060
07ffe0
06c060
00c000
01800c
03fffe
06318c
0c630c
30c30c
c1860c
030c18
0c1818
303018
006030
0183f0
0600e0
ENDCHAR
STARTCHAR ch-20
ENCODING 20
SWIDTH 1000 0
DWIDTH 24 0
BBX 24 24 0 -3
BITMAP
01c1c0
018180
018180
018198
3ffffc
018180
018180
018180
018186
ffffff
000000
000000
040060
07fff0
060060
060060
060060
07ffe0
060060
060060
060060
07ffe0
060060
060060
ENDCHAR
STARTCHAR ch-28
ENCODING 28
SWIDTH 1000 0
DWIDTH 24 0
BBX 24 24 0 -3
BITMAP
0200c0
03ffe0
0300c0
0300c0
03ffc0
0300c0
0300c0
0300c0
03ffc0
000000
000006
ffffff
018000
030018
07fffc
0c6318
18c618
618618
030c38
0c1830
303030
00c070
0703e0
0000c0
ENDCHAR
STARTCHAR ch-31
ENCODING 31
SWIDTH 1000 0
DWIDTH 24 0
BBX 24 24 0 -3
BITMAP
040060
07fff0
060060
060060
060060
07ffe0
060060
060060
060060
07ffe0
000000
041c00
071800
061830
0ffff8
0c1800
181800
301860
47fff0
001800
001800
001806
ffffff
000000
ENDCHAR
STARTCHAR ch-32
ENCODING 32
SWIDTH 1000 0
DWIDTH 24 0
BBX 24 24 0 -3
BITMAP
0001c0
000180
430180
7f8180
63218c
633ffe
63318c
63318c
63318c
63318c
7f318c
63318c
63318c
63ffff
630340
630340
630340
7f0620
630620
600c30
001818
00301f
00600e
018006
ENDCHAR
STARTCHAR ch-37
ENCODING 37
SWIDTH 1000 0
DWIDTH 24 0
BBX 24 24 0 -3
BITMAP
003800
003000
003018
3ffffc
003000
006000
006030
1ffff8
00c200
00c200
018106
ffffff
0300c0
020060
07fff0
0d81b8
19819f
31818e
c1ff86
018180
018180
018180
01ff80
018180
ENDCHAR
STARTCHAR ch-39
ENCODING 39
SWIDTH 1000 0
DWIDTH 24 0
BBX 24 24 0 -3
BITMAP
000380
000300
430300
7f8300
630318
637ffc
630300
630300
630300
630300
7f0306
63ffff
630f40
630f40
631b40
631b20
631320
7f3330
602318
00431f
00830e
030306
000300
000300
ENDCHAR
STARTCHAR ch-40
ENCODING 40
SWIDTH 1000 0
DWIDTH 24 0
BBX 24 24 0 -3
BITMAP
000400
000700
430600
7f8600
630c06
630fff
631b00
631300
632300
63430c
7f03fe
630300
630300
630300
630300
630306
6303ff
7f0300
630300
600300
000300
000300
000300
000300
ENDCHAR
STARTCHAR ch-45
ENCODING 45
SWIDTH 1000 0
DWIDTH 24 0
BBX 24 24 0 -3
BITMAP
000006
41bfff
7fc306
618306
618306
618306
618306
618606
61860e
618c0c
7f987c
61e018
618000
619006
619fff
619806
619806
619806
7f9806
619806
601806
001ffe
001806
001806
ENDCHAR
STARTCHAR ch-47
ENCODING 47
SWIDTH 1000 0
DWIDTH 24 0
BBX 24 24 0 -3
BITMAP
0200c0
03ffe0
0300c0
0300c0
03ffc0
0300c0
0300c0
0300c0
03ffc0
0300c0
000000
000006
ffffff
001800
041800
071818
061ffc
061800
0d1800
0c9800
187800
103e00
200fff
c001fe
ENDCHAR
STARTCHAR ch-52
ENCODING 52
SWIDTH 1000 0
DWIDTH 24 0
BBX 24 24 0 -3
BITMAP
040060
07fff0
060060
060060
07ffe0
060060
060060
07ffe0
000000
006000
23f20c
3e03fe
30030c
30e30c
30c30c
30c30c
30c30c
30c30c
ffc30c
78c37c
418318
018300
030300
0c0300
ENDCHAR
STARTCHAR ch-53
ENCODING 53
SWIDTH 1000 0
DWIDTH 24 0
BBX 24 24 0 -3
BITMAP
00200c
003ffe
43300c
7fb00c
63300c
63300c
633ffc
63300c
633000
7f3380
633300
633308
63330e
63331c
633330
6333c0
7f2300
636300
606302
004302
00c302
008303
0103ff
0001fe
ENDCHAR
STARTCHAR ch-54
ENCODING 54
SWIDTH 1000 0
DWIDTH 24 0
BBX 24 24 0 -3
BITMAP
000000
006000
7ff20c
0003fe
00030c
01830c
3fc30c
01930c
019f0c
199bfc
fdb30c
19a30c
19c30c
19c30c
19a30c
11a30c
1193fc
319b0c
218c00
218700
4183e0
8180ff
0f801e
030000
ENDCHAR
STARTCHAR ch-60
ENCODING 60
SWIDTH 1000 0
DWIDTH 24 0
BBX 24 24 0 -3
BITMAP
020060
03fff0
030060
030060
030060
03ffe0
030100
020100
060080
0400c0
0c0060
0bfff8
1300df
2300ce
c300c6
03ffc0
0300c0
0300c0
0300c0
03ffc0
000000
000006
ffffff
000000
ENDCHAR
STARTCHAR ch-63
ENCODING 63
SWIDTH 1000 0
DWIDTH 24 0
BBX 24 24 0 -3
BITMAP
0001c0
000180
430180
7f8180
632186
633fff
633000
633000
633080
7f30e0
6330c0
6330c0
6330c0
633180
633180
633190
7f2108
63610c
606306
004206
00c23b
009fe3
010f03
000800
ENDCHAR
STARTCHAR ch-65
ENCODING 65
SWIDTH 1000 0
DWIDTH 24 0
BBX 24 24 0 -3
BITMAP
080030
0ffff8
0c0030
0c0030
0c0030
0ffff0
0c0030
0c0030
0c0030
0ffff0
000000
20e710
18c61c
0cc638
0cc660
00c780
02c660
1cc630
f98618
61861a
430602
060603
1807ff
6003fe
ENDCHAR
STARTCHAR ch-66
ENCODING 66
SWIDTH 1000 0
DWIDTH 24 0
BBX 24 24 0 -3
BITMAP
000380
000300
430300
7f8318
633ffc
630300
630300
630300
630306
63ffff
7f0000
630030
630032
63ffff
630030
632030
631830
7f0c30
630c30
600030
000030
000030
0001f0
000060
ENDCHAR
STARTCHAR ch-67
ENCODING 67
SWIDTH 1000 0
DWIDTH 24 0
BBX 24 24 0 -3
BITMAP
040060
07fff0
060060
060060
07ffe0
060060
060060
060060
07ffe0
001840
081870
061860
031840
031886
ffffff
00c300
00c300
00c300
018300
018302
030302
060303
1803ff
e001fe
ENDCHAR
STARTCHAR ch-68
ENCODING 68
SWIDTH 1000 0
DWIDTH 24 0
BBX 24 24 0 -3
BITMAP
0001c0
000188
43218e
7f918c
63118c
631998
631998
631990
6301a0
7f0186
637fff
630660
630660
630660
630660
630660
7f0660
630c60
600c62
000862
001862
001063
00207f
00c03e
ENDCHAR
STARTCHAR ch-73
ENCODING 73
SWIDTH 1000 0
DWIDTH 24 0
BBX 24 24 0 -3
BITMAP
000018
3ffffc
020100
0381c0
030180
060100
048320
084210
3feff8
1c6718
000006
ffffff
000000
040060
07fff0
060060
060060
060060
07ffe0
060060
060060
060060
07ffe0
060060
ENDCHAR
STARTCHAR ch-75
ENCODING 75
SWIDTH 1000 0
DWIDTH 24 0
BBX 24 24 0 -3
BITMAP
000000
000018
3ffffc
00c300
20c310
18c31c
0cc318
0cc310
00c320
00c306
ffffff
000000
040060
07fff0
060060
060060
060060
07ffe0
060060
060060
060060
07ffe0
060060
060060
ENDCHAR
STARTCHAR ch-79
ENCODING 79
SWIDTH 1000 0
DWIDTH 24 0
BBX 24 24 0 -3
BITMAP
040060
07fff0
060060
060060
07ffe0
060060
060060
07ffe0
060060
001c00
201806
3fffff
600006
60e004
00c000
ffffff
0180c0
0301c0
060380
0ff600
0c1f80
0071f0
03c038
3c0018
ENDCHAR
STARTCHAR ch-82
ENCODING 82
SWIDTH 1000 0
DWIDTH 24 0
BBX 24 24 0 -3
BITMAP
000006
46ffff
7f0660
660660
660660
660660
664666
667fff
666666
666666
7e6666
666666
666666
666666
66647e
666c3e
666806
667006
7e6006
666006
606006
007ffe
006006
006006
ENDCHAR
STARTCHAR ch-93
ENCODING 93
SWIDTH 1000 0
DWIDTH 24 0
BBX 24 24 0 -3
BITMAP
001c00
001830
0ffff8
001830
001836
ffffff
001830
001830
0ffff0
001800
1ffff8
001800
ffffff
000000
07ffe0
060060
060060
07ffe0
060060
060060
07ffe0
000006
ffffff
000000
ENDCHAR
STARTCHAR ch-94
ENCODING 94
SWIDTH 1000 0
DWIDTH 24 0
BBX 24 24 0 -3
BITMAP
000010
000c1c
4303b8
7f80e0
6303b8
633e18
630380
630306
637fff
630600
7f06e0
630cc0
6308c6
631fff
6338c6
63d8c6
6318c6
7f18c6
6318c6
6018c6
0018de
0018cc
0000c0
0000c0
ENDCHAR
STARTCHAR ch-95
ENCODING 95
SWIDTH 1000 0
DWIDTH 24 0
BBX 24 24 0 -3
BITMAP
040030
07fff8
060030
060030
07fff0
060030
060030
07fff0
000100
000cc0
100c4c
1ffffe
180600
180610
18c61c
1fe338
18c370
18c1e0
30c082
31c1c2
218362
6f8c73
43303f
80000e
ENDCHAR
STARTCHAR ch-98
ENCODING 98
SWIDTH 1000 0
DWIDTH 24 0
BBX 24 24 0 -3
BITMAP
0e000c
0c087e
0ccfe0
ffec00
0c0c00
0c0c06
0c0fff
0f8c30
fe0c30
7c0c30
4c1830
0c1830
0c1030
7c2030
184030
000000
0ffff0
0c0030
0c0030
0ffff0
0c0030
0c0030
0ffff0
0c0030
ENDCHAR
STARTCHAR ch-100
ENCODING 100
SWIDTH 1000 0
DWIDTH 24 0
BBX 24 24 0 -3
BITMAP
00000c
003ffe
430300
7f8300
630300
630330
631ff8
630630
630630
7f0630
630630
630636
637fff
630000
630000
631018
7f1ffc
631818
601818
001818
001818
001818
001ff8
001818
ENDCHAR
STARTCHAR ch-102
ENCODING 102
SWIDTH 1000 0
DWIDTH 24 0
BBX 24 24 0 -3
BITMAP
000800
000e00
430c00
7f8806
631fff
631000
633000
632ffc
634ccc
630ccc
7f0ccc
630ccc
630ccc
63ffff
63198c
63198c
63198c
7f198c
63198c
603fff
003018
003018
0001f8
000070
ENDCHAR
STARTCHAR ch-103
ENCODING 103
SWIDTH 1000 0
DWIDTH 24 0
BBX 24 24 0 -3
BITMAP
0001c0
001180
431d80
7f9980
63198c
633ffe
633180
632180
634180
7f0180
630186
63ffff
630000
630000
631018
631ffc
7f1818
631818
601818
001818
001818
001818
001ff8
001818
ENDCHAR
STARTCHAR ch-104
ENCODING 104
SWIDTH 1000 0
DWIDTH 24 0
BBX 24 24 0 -3
BITMAP
020060
03fff0
030060
030060
03ffe0
030060
030060
03ffe0
10000c
1ffffe
180000
180000
1bfff0
180000
180006
1fffff
198408
31821c
318330
218180
619ce0
4ff07f
87803e
04000e
ENDCHAR
STARTCHAR ch-105
ENCODING 105
SWIDTH 1000 0
DWIDTH 24 0
BBX 24 24 0 -3
BITMAP
000800
000e00
430c60
7f8ff0
631860
6310c0
632080
63410c
633ffe
63318c
7f318c
63318c
63318c
63318c
633ffc
6330cc
6308c0
7f0ec0
631cc0
6018c2
0030c2
0060c3
00c0ff
03007e
ENDCHAR
STARTCHAR ch-110
ENCODING 110
SWIDTH 1000 0
DWIDTH 24 0
BBX 24 24 0 -3
BITMAP
020100
0181c0
00c180
00c20c
7ffffe
00c310
10c31c
0cc318
06c330
06c320
00c346
ffffff
000000
000000
03ffc0
0300c0
0300c0
0300c0
03ffc0
0300c0
0300c0
0300c0
03ffc0
0300c0
ENDCHAR
STARTCHAR ch-111
ENCODING 111
SWIDTH 1000 0
DWIDTH 24 0
BBX 24 24 0 -3
BITMAP
040060
07fff0
060060
060060
07ffe0
060060
060060
07ffe0
001806
ffffff
000000
040060
07fff0
060060
060060
060060
07ffe0
021800
039980
071860
0e1838
18181c
60f80c
003000
ENDCHAR
STARTCHAR ch-112
ENCODING 112
SWIDTH 1000 0
DWIDTH 24 0
BBX 24 24 0 -3
BITMAP
00380c
00301e
463138
7f31e0
663180
67ff80
663180
663186
6631ff
667998
7e7598
667598
667598
66f198
66b198
66b198
673198
7e3198
663198
603118
003318
003218
003418
003018
ENDCHAR
STARTCHAR ch-116
ENCODING 116
SWIDTH 1000 0
DWIDTH 24 0
BBX 24 24 0 -3
BITMAP
0001c0
000180
430184
7fbffe
630180
630188
631ffc
630180
630182
7f7fff
630000
631018
631ffc
631818
631818
631ff8
7f1818
631818
601ff8
001818
001818
001818
0018f8
001830
ENDCHAR
STARTCHAR ch-118
ENCODING 118
SWIDTH 1000 0
DWIDTH 24 0
BBX 24 24 0 -3
BITMAP
0200c0
03ffe0
0300c0
0300c0
0300c0
03ffc0
0300c0
0300c0
0300c0
03ffc0
0300c0
000000
40c206
7fe3ff
60c306
60c306
60c306
7fc3fe
60c306
60c306
60c306
60c306
7fc3fe
60c306
ENDCHAR
STARTCHAR ch-122
ENCODING 122
SWIDTH 1000 0
DWIDTH 24 0
BBX 24 24 0 -3
BITMAP
100000
1c0000
186206
3ff3ff
230306
430306
031b06
ffff06
060306
050306
0cc3fe
186306
306000
c40060
07fff0
060060
060060
060060
07ffe0
060060
060060
060060
07ffe0
060060
ENDCHAR
STARTCHAR ch-129
ENCODING 129
SWIDTH 1000 0
DWIDTH 24 0
BBX 24 24 0 -3
BITMAP
0001c0
000180
43018c
7fbffe
630180
630180
631d9c
631818
631818
63ffff
7f1818
631818
631818
630000
637ffe
630860
630e60
7f0c60
630c60
601862
001862
003063
00607f
03803e
ENDCHAR
STARTCHAR ch-131
ENCODING 131
SWIDTH 1000 0
DWIDTH 24 0
BBX 24 24 0 -3
BITMAP
080030
0ffff8
0c0030
0c0030
0ffff0
0c0030
0c0030
0c0030
0ffff0
000000
00e380
00c30c
7fc3fe
00c300
00c30c
7fc3fe
00c300
00c300
ffc306
7983ff
418300
030300
060300
380300
ENDCHAR
STARTCHAR ch-132
ENCODING 132
SWIDTH 1000 0
DWIDTH 24 0
BBX 24 24 0 -3
BITMAP
0001c0
002180
432186
7fbfff
636006
636004
630018
633ffc
630000
7f0000
631018
631ffc
631818
631818
631ff8
631818
7f1818
631818
601ff8
001818
000000
000006
00ffff
000000
ENDCHAR
STARTCHAR ch-135
ENCODING 135
SWIDTH 1000 0
DWIDTH 24 0
BBX 24 24 0 -3
BITMAP
004306
467f7f
7f6306
666306
666306
666306
666306
667f7e
666306
7e6000
666000
666606
667fff
666086
666086
66604c
7e604c
666658
607f30
606030
006058
0060cf
00618e
006606
ENDCHAR
STARTCHAR ch-136
ENCODING 136
SWIDTH 1000 0
DWIDTH 24 0
BBX 24 24 0 -3
BITMAP
040020
07fff0
040020
07ffe0
040020
27ffe0
200006
7fffff
600006
c01804
cffff0
001800
07ffe0
061860
061860
07ffe0
061860
061860
07ffe0
001806
ffffff
001800
001800
001800
ENDCHAR
STARTCHAR ch-137
ENCODING 137
SWIDTH 1000 0
DWIDTH 24 0
BBX 24 24 0 -3
BITMAP
001000
001006
433fff
7ff006
6361c4
630180
637ffe
630180
63218c
633ffe
7f318c
63318c
633ffc
63318c
63318c
633ffc
63318c
7f0180
630186
60ffff
000180
000180
000180
000180
ENDCHAR
STARTCHAR ch-142
ENCODING 142
SWIDTH 1000 0
DWIDTH 24 0
BBX 24 24 0 -3
BITMAP
000e38
000c30
430c32
7fffff
630c30
630c30
6301c0
630180
63218c
633ffe
7f318c
63318c
63318c
63318c
63318c
63ffff
630340
7f0340
630620
600630
000c18
00181f
00300e
00c006
ENDCHAR
STARTCHAR ch-145
ENCODING 145
SWIDTH 1000 0
DWIDTH 24 0
BBX 24 24 0 -3
BITMAP
080060
0ffff0
0c0060
0fffe0
0c0060
0c0068
0fffee
0c301c
003338
1ffff0
0030c0
003306
ffffff
001800
006000
018060
07fff0
1b0060
e30060
03ffe0
030060
030060
03ffe0
030060
ENDCHAR
STARTCHAR ch-150
ENCODING 150
SWIDTH 1000 0
DWIDTH 24 0
BBX 24 24 0 -3
BITMAP
00001c
7301fe
7f7f88
63020e
63210c
631988
630890
637ffe
630600
7f0600
630606
63ffff
630c00
630c00
630818
631ffc
631218
7f3230
632160
6041c0
008370
03063f
00181e
00e006
ENDCHAR
STARTCHAR ch-151
ENCODING 151
SWIDTH 1000 0
DWIDTH 24 0
BBX 24 24 0 -3
BITMAP
0001c0
000180
43018c
7fbffe
630020
630838
630430
630660
630640
630086
7f7fff
630000
631018
631ffc
631818
631818
631818
7f1ff8
631818
601818
001818
001818
001ff8
001818
ENDCHAR
STARTCHAR ch-152
ENCODING 152
SWIDTH 1000 0
DWIDTH 24 0
BBX 24 24 0 -3
BITMAP
001030
001ff8
431830
7f9830
631ff0
631830
631830
631830
631ff0
7f0000
630006
63ffff
631800
63100c
633ffe
7f266c
634c4c
6088cc
00108c
00210c
00c21c
000418
0018f8
000030
ENDCHAR
STARTCHAR ch-157
ENCODING 157
SWIDTH 1000 0
DWIDTH 24 0
BBX 24 24 0 -3
BITMAP
001000
001006
433fff
7ff006
636004
631018
631ffc
631818
631818
7f1ff8
631818
631818
631ff8
631818
6301c0
630186
7f7fff
630000
600000
000820
000e18
001c0c
00300e
00c006
ENDCHAR
STARTCHAR ch-162
ENCODING 162
SWIDTH 1000 0
DWIDTH 24 0
BBX 24 24 0 -3
BITMAP
0e0830
0c0ff8
0c0c30
0c0c30
4c8ff0
7fcc30
4c8c30
4c8c30
4c8ff0
7f8000
4c8006
4cffff
4c8c00
4c880c
7f9ffe
4c924c
0c264c
0c44cc
0c888c
0c110c
0c621c
0c0418
0c18f8
0c0030
ENDCHAR
STARTCHAR ch-166
ENCODING 166
SWIDTH 1000 0
DWIDTH 24 0
BBX 24 24 0 -3
BITMAP
000000
20000c
3ffffe
300000
30e0e0
30c8c6
37ffff
30c0c0
31e1e0
31d9d0
32cad8
34c4cc
38c8cf
30d0c6
300000
310030
21fff8
218030
618030
41fff0
418030
818030
01fff0
018030
ENDCHAR
STARTCHAR ch-171
ENCODING 171
SWIDTH 1000 0
DWIDTH 24 0
BBX 24 24 0 -3
BITMAP
03800c
031a3e
ffffe0
030300
3ff300
231306
2313ff
3ff318
231318
231318
3ff318
030218
fffe18
030418
031818
000000
0ffff0
0c0030
0c0030
0ffff0
0c0030
0c0030
0ffff0
0c0030
ENDCHAR
STARTCHAR ch-174
ENCODING 174
SWIDTH 1000 0
DWIDTH 24 0
BBX 24 24 0 -3
BITMAP
00e380
00c306
ffffff
00c300
00c300
07ffe0
060060
060060
07ffe0
060060
060060
07ffe0
006006
ffffff
00c200
018100
03ffc0
0700f8
1b00df
e3ffc6
0300c0
0300c0
03ffc0
0300c0
ENDCHAR
STARTCHAR ch-180
ENCODING 180
SWIDTH 1000 0
DWIDTH 24 0
BBX 24 24 0 -3
BITMAP
040060
07fff0
060060
060060
07ffe0
060060
060060
07ffe0
00c300
00c308
3ffffc
00c300
00c302
ffffff
030080
061c40
0d99b8
30991f
c01806
019b80
3e18f0
181838
10f818
003000
ENDCHAR
STARTCHAR ch-184
ENCODING 184
SWIDTH 1000 0
DWIDTH 24 0
BBX 24 24 0 -3
BITMAP
000380
000300
430306
7fffff
630344
634246
633628
631430
630818
7f1ffc
632c3f
634c36
630ff0
630c30
630c30
630ff0
7f0180
632190
60398c
003186
006187
004183
008f80
000300
ENDCHAR
STARTCHAR ch-185
ENCODING 185
SWIDTH 1000 0
DWIDTH 24 0
BBX 24 24 0 -3
BITMAP
004018
407ffc
306018
187ff8
0c6018
0c6018
007ff8
002100
00318c
007ffe
0c6180
fce180
0d7ffc
0e6180
0c6180
0c7ffc
0c6180
0c6186
0c7fff
0c6000
1a0000
f1ffff
607ffe
400000
ENDCHAR
STARTCHAR ch-188
ENCODING 188
SWIDTH 1000 0
DWIDTH 24 0
BBX 24 24 0 -3
BITMAP
072080
8638e0
6670c0
264186
0681ff
7ff210
46151c
469118
5650b0
565060
5650f0
66119c
46760f
462006
000000
080030
0ffff8
0c0030
0c0030
0ffff0
0c0030
0c0030
0ffff0
0c0030
ENDCHAR
STARTCHAR ch-190
ENCODING 190
SWIDTH 1000 0
DWIDTH 24 0
BBX 24 24 0 -3
BITMAP
001c40
001870
461860
7fffe0
660060
660046
667eff
664288
66434e
7e7e4c
66004c
66064c
66ff28
660628
660438
661810
7e1810
67ff38
61f828
01182c
00186c
00184f
00f886
003106
ENDCHAR
STARTCHAR ch-193
ENCODING 193
SWIDTH 1000 0
DWIDTH 24 0
BBX 24 24 0 -3
BITMAP
20c018
3feffc
30c4c0
30c4c0
3fc4c0
30c4cc
30dffe
3fc180
3101e0
308364
33c266
fc647e
70683c
400000
07ffe0
060060
060060
07ffe0
060060
060060
07ffe0
000006
ffffff
000000
ENDCHAR
STARTCHAR ch-196
ENCODING 196
SWIDTH 1000 0
DWIDTH 24 0
BBX 24 24 0 -3
BITMAP
000e70
000c60
430c66
7fffff
630c60
630c60
630004
637ffe
631188
7f1188
63118a
63ffff
631188
631188
631188
637ffe
7f0180
630180
600186
00ffff
000180
000180
000180
000180
ENDCHAR
STARTCHAR ch-199
ENCODING 199
SWIDTH 1000 0
DWIDTH 24 0
BBX 24 24 0 -3
BITMAP
040020
07fff0
040020
07ffe0
040020
07ffe0
000000
1ffff8
001800
201806
3fffff
601806
cf99f4
c01800
0f99f0
000000
1ffff8
000000
ffffff
00c000
008180
010070
3fffb8
0fc018
ENDCHAR
STARTCHAR ch-201
ENCODING 201
SWIDTH 1000 0
DWIDTH 24 0
BBX 24 24 0 -3
BITMAP
0001c0
000188
433ffc
7f8180
630184
637ffe
630000
631818
631010
7ffefe
631010
631010
631c12
63f1ff
634000
630000
7f7ffe
630c60
600c60
001862
001862
003063
00607f
01803e
ENDCHAR
STARTCHAR ch-214
ENCODING 214
SWIDTH 1000 0
DWIDTH 24 0
BBX 24 24 0 -3
BITMAP
000018
0001fc
463fc8
7f110c
660888
664892
667fff
66c206
66c188
660c80
7e2c28
666c26
6647e2
660800
660c18
660ffc
661818
7e1430
662360
60c1c0
000360
000638
00181f
00e006
ENDCHAR
STARTCHAR ch-217
ENCODING 217
SWIDTH 1000 0
DWIDTH 24 0
BBX 24 24 0 -3
BITMAP
00400c
467ffe
7f648c
66648c
66648c
66648c
667ffc
660610
66061c
7e7ff8
660630
660666
67ffff
660180
660618
661ffc
661818
7e7818
619ff8
601818
001818
001818
001ff8
001818
ENDCHAR
STARTCHAR ch-218
ENCODING 218
SWIDTH 1000 0
DWIDTH 24 0
BBX 24 24 0 -3
BITMAP
000e70
000c66
46ffff
7f0c60
660c60
664006
667fff
66c006
66cfe4
7e0000
660006
66ffff
660300
660e08
66330e
66c58c
7e09d0
6632e0
60c6d0
000ccc
0018cf
0061c6
018780
000300
ENDCHAR
STARTCHAR ch-220
ENCODING 220
SWIDTH 1000 0
DWIDTH 24 0
BBX 24 24 0 -3
BITMAP
000c0c
46fefe
7e0c0c
660c0c
66fcfc
660c0c
660c0c
66fcfc
66100c
7e1c40
661860
6630c4
663ffe
667080
667088
66bffc
673080
7e3088
663ffc
603080
003080
003082
003fff
003000
ENDCHAR
STARTCHAR ch-221
ENCODING 221
SWIDTH 1000 0
DWIDTH 24 0
BBX 24 24 0 -3
BITMAP
002018
433ffc
7fb018
633018
633ff8
633018
633018
633ff8
7f0440
630448
637ffc
630440
630442
63ffff
631820
7f3310
60631c
60db6f
030b46
000300
001b70
01e31c
00cf0c
000600
ENDCHAR
STARTCHAR ch-224
ENCODING 224
SWIDTH 1000 0
DWIDTH 24 0
BBX 24 24 0 -3
BITMAP
0001c0
000180
464186
7f7fff
666000
666110
666ffe
666110
666110
7e7fff
666040
666040
6667fc
666444
666444
6667fc
7e6444
66c444
60c7fc
008000
018210
01030c
020606
001806
ENDCHAR
STARTCHAR ch-230
ENCODING 230
SWIDTH 1000 0
DWIDTH 24 0
BBX 24 24 0 -3
BITMAP
001018
000c18
460c20
7e7ffe
660180
660180
663ffc
660180
660182
7effff
660000
6604e8
660ec6
6678c2
6608c0
66ffff
7e08c8
60084c
60fe58
007832
004872
0008da
007b0f
003003
ENDCHAR
STARTCHAR ch-233
ENCODING 233
SWIDTH 1000 0
DWIDTH 24 0
BBX 24 24 0 -3
BITMAP
040020
07fff0
040020
07ffe0
040020
07ffe0
00180c
7ffffe
020000
074238
1c420e
67ffe6
004200
07ffe0
004200
00420c
7ffffe
00e410
038238
1f8360
f181c0
01fcf0
1fc03f
0e000e
ENDCHAR
STARTCHAR ch-240
ENCODING 240
SWIDTH 1000 0
DWIDTH 24 0
BBX 24 24 0 -3
BITMAP
000000
20000c
3ffffe
30000c
30000c
30000c
30000c
30000c
30000c
30000c
30018c
3fffcc
30000c
30000c
30000c
30000c
30000c
30000c
30000c
30000c
30000c
3ffffc
30000c
30000c
ENDCHAR
STARTCHAR ch-242
ENCODING 242
SWIDTH 1000 0
DWIDTH 24 0
BBX 24 24 0 -3
BITMAP
00e380
00c300
00c300
00c300
00c300
20c30c
3ffffe
30c30c
30c30c
30c30c
30c30c
30c30c
30c30c
3ffffc
30c30c
30c30c
30c30c
30c30c
30c30c
30c30c
30c30c
3ffffc
30000c
30000c
ENDCHAR
STARTCHAR ch-243
ENCODING 243
SWIDTH 1000 0
DWIDTH 24 0
BBX 24 24 0 -3
BITMAP
003800
003000
003000
203018
3ffffc
303018
303018
303018
3ffff8
303018
303018
303018
3ffff8
301818
301840
001870
000ce0
000dc2
000702
001e02
007382
03c1e3
7c007f
00001e
ENDCHAR
STARTCHAR ch-244
ENCODING 244
SWIDTH 1000 0
DWIDTH 24 0
BBX 24 24 0 -3
BITMAP
000000
000006
ffffff
001800
001800
101818
1ffffc
181818
181818
1ffff8
181818
181818
181818
1ffff8
181818
021800
033000
01b000
006000
00d800
018f00
0703ff
1c007e
e0000e
ENDCHAR
STARTCHAR ch-245
ENCODING 245
SWIDTH 1000 0
DWIDTH 24 0
BBX 24 24 0 -3
BITMAP
003900
0030c0
0030c0
003000
203018
3ffffc
303018
303018
303118
3fff98
303018
303018
303018
3ffff8
301818
301840
000ce0
000dc0
000702
001e02
007382
03c1e3
7c007f
00001e
ENDCHAR
STARTCHAR ch-247
ENCODING 247
SWIDTH 1000 0
DWIDTH 24 0
BBX 24 24 0 -3
BITMAP
040060
07fff0
060060
060060
07ffe0
060060
060060
060060
07ffe0
007000
00e000
01800c
03fffe
06000c
1f0c0c
661e0c
06700c
07800c
06020c
06030c
07ff1c
03fe18
0000f8
000030
ENDCHAR
STARTCHAR ch-248
ENCODING 248
SWIDTH 1000 0
DWIDTH 24 0
BBX 24 24 0 -3
BITMAP
001c00
001830
0ffff8
001830
001836
ffffff
001830
001830
0ffff0
001830
001800
1ffff8
001800
001806
ffffff
000000
0ffff0
0c0030
0c0030
0ffff0
0c0030
0c0030
0ffff0
0c0030
ENDCHAR
STARTCHAR ch-249
ENCODING 249
SWIDTH 1000 0
DWIDTH 24 0
BBX 24 24 0 -3
BITMAP
006300
004200
004206
ffffff
004200
104218
1ffffc
184218
184218
1ffff8
184218
184218
1ffff8
000000
040060
07fff0
060060
060060
07ffe0
060060
060060
060060
07ffe0
060060
ENDCHAR
STARTCHAR ch-252
ENCODING 252
SWIDTH 1000 0
DWIDTH 24 0
BBX 24 24 0 -3
BITMAP
0200c0
03ffe0
0300c0
0300c0
03ffc0
0300c0
0300c0
03ffc0
20000c
3ffffe
30c30c
30c30c
30c30c
3ffffc
30000c
000000
1fffe0
0101c0
008380
006e00
003800
00ef00
0783ff
f8007e
ENDCHAR
STARTCHAR ch-253
ENCODING 253
SWIDTH 1000 0
DWIDTH 24 0
BBX 24 24 0 -3
BITMAP
020100
0181c0
00c180
00c100
100218
1ffffc
181818
181818
1ffff8
181818
181818
181818
1ffff8
000000
040060
07fff0
060060
060060
07ffe0
060060
060060
060060
07ffe0
060060
ENDCHAR
STARTCHAR ch-254
ENCODING 254
SWIDTH 1000 0
DWIDTH 24 0
BBX 24 24 0 -3
BITMAP
010100
01c080
0380c0
030060
060038
0c001f
1ffffe
2c1836
cd19b0
0c9930
0cda30
0c1830
0ffff0
000000
040060
07fff0
060060
060060
07ffe0
060060
060060
060060
07ffe0
060060
ENDCHAR
STARTCHAR ch-255
ENCODING 255
SWIDTH 1000 0
DWIDTH 24 0
BBX 24 24 0 -3
BITMAP
0380e0
0300c0
0330cc
7ffffe
0300c0
0300c0
0330c6
ffffff
0301a0
06c1a0
066310
0c661c
18180f
340066
c7fff0
060060
060060
060060
07ffe0
060060
060060
060060
07ffe0
060060
ENDCHAR
STARTCHAR ch-256
ENCODING 256
SWIDTH 1000 0
DWIDTH 24 0
BBX 24 24 0 -3
BITMAP
040060
07fff0
060060
060060
07ffe0
060060
060060
07ffe0
000006
ffffff
18c000
18c018
1fdffc
18c418
18c418
18c230
1fc230
18c160
18c0c0
18c1f0
ffc33f
78c61e
40d806
00c000
ENDCHAR
STARTCHAR ch-259
ENCODING 259
SWIDTH 1000 0
DWIDTH 24 0
BBX 24 24 0 -3
BITMAP
001800
003800
007400
00e300
0181c0
0302f8
0cff3f
30000e
cffff0
0c1830
0d19b0
0c9930
0cda30
0c1830
0ffff0
000000
07ffe0
060060
060060
07ffe0
060060
060060
07ffe0
060060
ENDCHAR
STARTCHAR ch-264
ENCODING 264
SWIDTH 1000 0
DWIDTH 24 0
BBX 24 24 0 -3
BITMAP
020060
03fff0
030060
030060
030060
030060
030060
03ffe0
030060
030060
030060
030060
030060
03ffe0
030060
030060
030060
060060
060060
040060
0c0060
080060
1003e0
6000c0
ENDCHAR
STARTCHAR ch-265
ENCODING 265
SWIDTH 1000 0
DWIDTH 24 0
BBX 24 24 0 -3
BITMAP
003800
003000
003000
003006
ffffff
006000
006000
00c000
00c060
01fff0
018060
038060
078060
0dffe0
198060
618060
018060
01ffe0
018060
018060
018060
018060
0183e0
0180c0
ENDCHAR
STARTCHAR ch-267
ENCODING 267
SWIDTH 1000 0
DWIDTH 24 0
BBX 24 24 0 -3
BITMAP
20c40c
3fe7fe
30c60c
30c60c
30c60c
30c60c
30c60c
3fc7fc
30c60c
30c60c
30c60c
30c60c
30c60c
3fc7fc
30c60c
30c60c
30c60c
30c60c
30c60c
20c40c
20cc0c
67c80c
41907c
802018
ENDCHAR
STARTCHAR ch-269
ENCODING 269
SWIDTH 1000 0
DWIDTH 24 0
BBX 24 24 0 -3
BITMAP
20c80c
3feffe
30cc0c
30cc0c
30cc0c
30cc0c
30cc7c
3fcc18
30cc00
30cc06
30cfff
30cc86
30cc86
3fcc8c
30cccc
30cc48
30cc58
30cc70
20cc20
20cc70
60cc58
40cc8f
47cf0e
818c06
ENDCHAR
STARTCHAR ch-271
ENCODING 271
SWIDTH 1000 0
DWIDTH 24 0
BBX 24 24 0 -3
BITMAP
2180e0
3fc0c0
319cc7
3198c6
3198c6
3198c6
3198c6
3f98c6
319ffe
3198c6
3180c0
3180c0
3180c0
3f80c0
319cc7
3198c6
3198c6
3198c6
3198c6
2198c6
6198c6
419ffe
4f9806
831806
ENDCHAR
STARTCHAR ch-276
ENCODING 276
SWIDTH 1000 0
DWIDTH 24 0
BBX 24 24 0 -3
BITMAP
002106
2039ff
183186
0c6186
0c4186
008d86
ffff86
0301fe
030186
731d86
631986
631986
631986
6319fe
7ff986
631986
631986
030186
030186
060306
060306
0c0606
180c3e
60300c
ENDCHAR
STARTCHAR ch-277
ENCODING 277
SWIDTH 1000 0
DWIDTH 24 0
BBX 24 24 0 -3
BITMAP
219008
3fcc0e
31860c
318618
318610
318020
31804c
3fbffe
318180
318180
318180
318180
318186
3fffff
318180
318180
318340
318340
218220
218630
618418
41881f
4f900e
836006
ENDCHAR
STARTCHAR ch-278
ENCODING 278
SWIDTH 1000 0
DWIDTH 24 0
BBX 24 24 0 -3
BITMAP
2181c0
3fc180
318180
319198
319ffc
319818
319818
3f9818
319ff8
319818
319818
319818
319ff8
3f9904
31990e
31989c
3198b0
3198c0
219840
219860
6199b8
41fe1f
4fb80e
832006
ENDCHAR
STARTCHAR ch-279
ENCODING 279
SWIDTH 1000 0
DWIDTH 24 0
BBX 24 24 0 -3
BITMAP
07020c
0603fe
26630c
3ff30c
30630c
30630c
30630c
3fe3fc
30630c
30630c
30630c
3fe30c
30630c
3003fc
31030c
30830c
30c30c
31660c
36660c
3c640c
f80c0c
60080c
40107c
006018
ENDCHAR
STARTCHAR ch-283
ENCODING 283
SWIDTH 1000 0
DWIDTH 24 0
BBX 24 24 0 -3
BITMAP
03820c
0303fe
03330c
fffb0c
1803fc
18030c
18030c
18030c
1803fc
18020c
1fe60c
0fe40c
00087c
001018
000000
3ffffc
001800
001800
1ffff8
001800
001800
001806
ffffff
000000
ENDCHAR
STARTCHAR ch-285
ENCODING 285
SWIDTH 1000 0
DWIDTH 24 0
BBX 24 24 0 -3
BITMAP
038106
0301ff
031986
fffd86
030186
030186
233186
3ff9fe
303186
303186
3ff186
303186
303186
3031fe
3ff186
333186
030186
031986
fffd86
030306
030306
030206
03043e
03180c
ENDCHAR
STARTCHAR ch-286
ENCODING 286
SWIDTH 1000 0
DWIDTH 24 0
BBX 24 24 0 -3
BITMAP
01c1c0
01818c
7ffffe
018180
01ff80
018180
018180
01ff80
018180
018186
ffffff
018080
030040
03ffe0
0781b8
0d819f
31ff8e
c18186
018180
01ff80
030180
030180
060f80
180300
ENDCHAR
STARTCHAR ch-287
ENCODING 287
SWIDTH 1000 0
DWIDTH 24 0
BBX 24 24 0 -3
BITMAP
1c7106
1861ff
186186
186986
fffd86
186186
186186
1861fe
1fe186
186186
186186
186186
1fe186
1861fe
186186
186986
fffd86
000186
108186
1c6306
183306
303206
60043e
80180c
ENDCHAR
STARTCHAR ch-294
ENCODING 294
SWIDTH 1000 0
DWIDTH 24 0
BBX 24 24 0 -3
BITMAP
230e70
3f0c66
33ffff
330c60
330c60
332006
333fff
3f6006
3367e4
330000
330006
337fff
330700
330e08
3f130e
33658c
3309d0
3313e0
3366f0
230cdc
6318cf
4361c6
4f0780
860300
ENDCHAR
STARTCHAR ch-295
ENCODING 295
SWIDTH 1000 0
DWIDTH 24 0
BBX 24 24 0 -3
BITMAP
261c70
3f1866
26197f
26ffe0
264460
26267e
262406
3e0986
27ffc6
26007e
260060
267e60
26427e
264260
3e7e60
26427e
264260
267e60
26427e
664260
464262
464263
5e5e7f
8c4c3e
ENDCHAR
STARTCHAR ch-296
ENCODING 296
SWIDTH 1000 0
DWIDTH 24 0
BBX 24 24 0 -3
BITMAP
001c00
001800
001800
001800
001800
001806
ffffff
007a00
007a00
00d900
00d900
019980
019880
0318c0
031860
061870
0c1838
18181f
30180e
c01806
001800
001800
001800
001800
ENDCHAR
STARTCHAR ch-298
ENCODING 298
SWIDTH 1000 0
DWIDTH 24 0
BBX 24 24 0 -3
BITMAP
001c00
001800
001800
001800
001830
1ffff8
001800
001800
001800
001800
00180c
7ffffe
007a00
007900
00d900
00d880
0198c0
031860
061838
0c181f
30180e
c01806
001800
001800
ENDCHAR
STARTCHAR ch-299
ENCODING 299
SWIDTH 1000 0
DWIDTH 24 0
BBX 24 24 0 -3
BITMAP
001c00
001800
001800
001800
001806
ffffff
001800
001800
001800
001800
001818
3ffffc
007a00
00d900
00d900
019880
0318c0
061860
0c1838
18181f
30180e
c01806
001800
001800
ENDCHAR
STARTCHAR ch-300
ENCODING 300
SWIDTH 1000 0
DWIDTH 24 0
BBX 24 24 0 -3
BITMAP
001c00
001800
001800
001800
001800
001806
ffffff
007a00
007a00
00d900
00d900
019880
0198c0
031860
061870
0c183c
18181f
33ffce
c01806
001800
001800
001800
001800
001800
ENDCHAR
STARTCHAR ch-301
ENCODING 301
SWIDTH 1000 0
DWIDTH 24 0
BBX 24 24 0 -3
BITMAP
038380
030300
030300
030300
033300
fffb00
030300
030300
070300
078300
076300
0f3300
0b3b00
1b1b00
130300
230300
430300
830300
030302
030302
030302
030303
0303ff
0301fe
ENDCHAR
STARTCHAR ch-302
ENCODING 302
SWIDTH 1000 0
DWIDTH 24 0
BBX 24 24 0 -3
BITMAP
001c00
001880
001860
001830
001830
001806
ffffff
001800
001800
0718e0
0618c0
0618c0
0618c0
0618c0
0618c0
0618c0
0618c2
0c18c2
0c18c2
0818c3
1018ff
20187e
001800
001800
ENDCHAR
STARTCHAR ch-305
ENCODING 305
SWIDTH 1000 0
DWIDTH 24 0
BBX 24 24 0 -3
BITMAP
001c00
021800
039800
031800
031830
07fff8
061800
0c1800
181800
201800
001806
ffffff
00da00
00d900
019900
019880
0318c0
061860
0c1838
18181f
30180e
c01806
001800
001800
ENDCHAR
STARTCHAR ch-308
ENCODING 308
SWIDTH 1000 0
DWIDTH 24 0
BBX 24 24 0 -3
BITMAP
0700e0
0600c0
0600c0
0600c0
0630c0
fff8c0
0600c0
0600c0
0600e0
0f00d8
0ec0cc
0e60c6
1e70c7
1630c3
3600c0
2600c0
4600c0
8600c0
0600c0
0600c0
0600c0
0600c0
0600c0
0600c0
ENDCHAR
STARTCHAR ch-310
ENCODING 310
SWIDTH 1000 0
DWIDTH 24 0
BBX 24 24 0 -3
BITMAP
000300
3fff80
018300
018300
01830c
0387fe
03060c
03000c
06001c
0c0018
1800f8
601c30
001800
00180c
7ffffe
007a00
00d900
01d980
0398c0
071870
0c183f
30181e
c01806
001800
ENDCHAR
STARTCHAR ch-311
ENCODING 311
SWIDTH 1000 0
DWIDTH 24 0
BBX 24 24 0 -3
BITMAP
0e0000
0c000c
0c3ffe
0c030c
0d830c
ffc30c
0c030c
0c030c
0c030c
1e030c
1d830c
1cc30c
3cc30c
2c070c
2c060c
6c060c
4c060c
8c040c
0c0c0c
0c080c
0c181c
0c1018
0c20f8
0cc030
ENDCHAR
STARTCHAR ch-312
ENCODING 312
SWIDTH 1000 0
DWIDTH 24 0
BBX 24 24 0 -3
BITMAP
0e0380
0c0300
0c0300
0c0300
0d8300
ffc30c
0c3ffe
0c030c
0c030c
1e030c
1d830c
1cc30c
3cc30c
2c030c
2c030c
6c030c
4c060c
8c060c
0c060c
0c040c
0c0c1c
0c0818
0c10f8
0c6030
ENDCHAR
STARTCHAR ch-314
ENCODING 314
SWIDTH 1000 0
DWIDTH 24 0
BBX 24 24 0 -3
BITMAP
0e0000
0c0860
0c0ff0
0c0c60
0ccc60
ffec60
0c0c60
0c0c60
0c0c60
1e0c60
1d8c60
1ccc60
3ccc60
2c0c60
2c0c60
6c0c60
4c0c60
8c0c60
0c1862
0c1862
0c1062
0c3063
0c607f
0d803e
ENDCHAR
STARTCHAR ch-317
ENCODING 317
SWIDTH 1000 0
DWIDTH 24 0
BBX 24 24 0 -3
BITMAP
0e0000
0c0006
0cffff
0c0600
0d8600
ffc600
0c0c00
0c0c00
0c0c0c
1e0ffe
1d980c
1cd80c
3cd80c
2c000c
2c000c
6c000c
4c000c
8c0018
0c0018
0c0018
0c0030
0c0070
0c07e0
0c01c0
ENDCHAR
STARTCHAR ch-319
ENCODING 319
SWIDTH 1000 0
DWIDTH 24 0
BBX 24 24 0 -3
BITMAP
001c00
001800
001800
001806
ffffff
001800
001800
081830
0ffff8
0c1830
0c1830
0c1830
0c3c30
0c3c30
0c7af0
0c7a60
00d900
019980
0318c0
061870
0c183c
30181f
c01806
001800
ENDCHAR
STARTCHAR ch-321
ENCODING 321
SWIDTH 1000 0
DWIDTH 24 0
BBX 24 24 0 -3
BITMAP
0e0180
0c3fc0
0c0100
0c0100
0d8100
ffc100
0c0100
0c0100
0c0300
1e0300
1d8380
1cc380
3cc280
2c0680
2c06c0
6c0640
4c0460
8c0c60
0c0830
0c1838
0c101c
0c201f
0c400e
0d8006
ENDCHAR
STARTCHAR ch-326
ENCODING 326
SWIDTH 1000 0
DWIDTH 24 0
BBX 24 24 0 -3
BITMAP
0e0000
0c000c
0c3ffe
0c0180
0d8180
ffc180
0c0180
0c0180
0c0180
1c0186
1e7fff
1d8180
3cc180
2cc180
2c0180
6c0180
4c0180
8c0180
0c0180
0c0180
0c0180
0c0180
0c0180
0c0180
ENDCHAR
STARTCHAR ch-329
ENCODING 329
SWIDTH 1000 0
DWIDTH 24 0
BBX 24 24 0 -3
BITMAP
070010
06001c
060038
060030
066060
fff0c0
060180
060308
0e0c0e
0f001c
0ec038
1e6070
1660e0
360180
260604
461807
86000e
06001c
060038
060060
0600c0
060300
060c00
063000
ENDCHAR
STARTCHAR ch-334
ENCODING 334
SWIDTH 1000 0
DWIDTH 24 0
BBX 24 24 0 -3
BITMAP
001c00
001800
001806
ffffff
007a00
00d900
019880
031860
061838
0c181f
300006
c000c0
0fffe0
000180
001300
001c00
001806
ffffff
001800
001800
001800
001800
00f800
003000
ENDCHAR
STARTCHAR ch-335
ENCODING 335
SWIDTH 1000 0
DWIDTH 24 0
BBX 24 24 0 -3
BITMAP
001c00
001800
001800
001806
ffffff
007a00
00d900
01d980
0398c0
071870
0c183f
30181e
c01806
000000
040060
07fff0
060060
060060
060060
060060
060060
060060
07ffe0
060060
ENDCHAR
STARTCHAR ch-336
ENCODING 336
SWIDTH 1000 0
DWIDTH 24 0
BBX 24 24 0 -3
BITMAP
070038
060030
060030
060030
066036
ffffff
060030
060030
0e0070
0f0070
0ec0f0
1e60f0
1631b0
1631b0
360330
260630
460c30
861830
062030
060030
060030
060030
0601f0
060060
ENDCHAR
STARTCHAR ch-337
ENCODING 337
SWIDTH 1000 0
DWIDTH 24 0
BBX 24 24 0 -3
BITMAP
070038
060030
060030
060030
060030
06c036
ffefff
060030
060030
0f0030
0ec830
1e6430
166630
360330
260330
460030
860030
060030
060030
060030
060030
060030
0601f0
060060
ENDCHAR
STARTCHAR ch-339
ENCODING 339
SWIDTH 1000 0
DWIDTH 24 0
BBX 24 24 0 -3
BITMAP
0e0800
0c0e00
0c0c00
0c0c00
0d9806
ffdfff
0c1006
0c3006
0c2006
1e4806
1d8606
1cc306
3cc386
2c0186
2c0186
6c0006
4c0006
8c0006
0c000c
0c000c
0c000c
0c0018
0c00f8
0c0030
ENDCHAR
STARTCHAR ch-342
ENCODING 342
SWIDTH 1000 0
DWIDTH 24 0
BBX 24 24 0 -3
BITMAP
0e01c0
0c0180
0c0180
0c0180
0d8180
ffc186
0c3fff
0c0180
0c0180
1e0980
1d8980
1cc980
3cc580
2c0580
2c0700
6c0300
4c0380
8c0280
0c06c0
0c0460
0c0838
0c101f
0c200e
0cc006
ENDCHAR
STARTCHAR ch-345
ENCODING 345
SWIDTH 1000 0
DWIDTH 24 0
BBX 24 24 0 -3
BITMAP
0e0380
0c0320
0c0318
0c030c
0d830c
ffc300
0c0306
0c3fff
0c0180
1e0180
1d8180
1cc180
3cc1c0
2c00c0
2c00c0
6c00c0
4c00e0
8c0060
0c0072
0c0032
0c003a
0c001f
0c000f
0c0006
ENDCHAR
STARTCHAR ch-348
ENCODING 348
SWIDTH 1000 0
DWIDTH 24 0
BBX 24 24 0 -3
BITMAP
0e01c0
0c0180
0c0180
0c0180
0cc180
ffe180
0c0180
0c0180
0c0180
1e018c
1dbffe
1cc180
3cc180
2c0180
2c0180
6c0180
4c0180
8c0180
0c0180
0c0180
0c0180
0c0186
0cffff
0c0000
ENDCHAR
STARTCHAR ch-350
ENCODING 350
SWIDTH 1000 0
DWIDTH 24 0
BBX 24 24 0 -3
BITMAP
0e0000
0c000c
0c1ffe
0c000c
0cc00c
ffe00c
0c000c
0c000c
0c000c
1e080c
1d8ffc
1ccc0c
3ccc0c
2c0c00
2c0c00
6c0c00
4c0c00
8c0c00
0c0c02
0c0c02
0c0c02
0c0c03
0c0fff
0c07fe
ENDCHAR
STARTCHAR ch-351
ENCODING 351
SWIDTH 1000 0
DWIDTH 24 0
BBX 24 24 0 -3
BITMAP
001c00
001800
001806
ffffff
001800
001800
101818
1ffffc
181818
181818
181818
181818
181818
1ffff8
187a18
00da00
00d900
019980
0318c0
061870
0c183f
30181e
c01806
001800
ENDCHAR
STARTCHAR ch-352
ENCODING 352
SWIDTH 1000 0
DWIDTH 24 0
BBX 24 24 0 -3
BITMAP
0e0000
0c000c
0c3ffe
0c0180
0d8180
ffc180
0c0180
0c0180
0c0180
1e0180
1d8180
1cc180
3cc180
2c0180
2c0180
6c0180
4c0180
8c0180
0c0180
0c0180
0c0180
0c0186
0c7fff
0c0000
ENDCHAR
STARTCHAR ch-353
ENCODING 353
SWIDTH 1000 0
DWIDTH 24 0
BBX 24 24 0 -3
BITMAP
004000
0060c0
00ffe0
0181c0
034380
062700
181c00
603600
00e3c0
0300ff
1c003e
e01c0e
001800
001806
ffffff
00da00
01d900
019980
0318c0
061870
0c183f
30181e
c01806
001800
ENDCHAR
STARTCHAR ch-354
ENCODING 354
SWIDTH 1000 0
DWIDTH 24 0
BBX 24 24 0 -3
BITMAP
001c00
001800
001800
00180c
7ffffe
007a00
00d900
00d980
0198c0
031870
06183f
0c181e
301806
c00000
000030
1ffff8
001800
001800
001800
001800
001800
001806
ffffff
000000
ENDCHAR
STARTCHAR ch-355
ENCODING 355
SWIDTH 1000 0
DWIDTH 24 0
BBX 24 24 0 -3
BITMAP
0e00e0
0c00c0
0c00c0
0c00c0
0d80c0
ffc0c0
0c1cc7
0c18c6
0c18c6
1e18c6
1d98c6
1cd8c6
3cd8c6
2c18c6
2c18c6
6c18c6
4c18c6
8c18c6
0c18c6
0c18c6
0c18c6
0c1ffe
0c1806
0c1806
ENDCHAR
STARTCHAR ch-356
ENCODING 356
SWIDTH 1000 0
DWIDTH 24 0
BBX 24 24 0 -3
BITMAP
0e0000
0c0006
0c7fff
0c0600
0d8600
ffc600
0c0600
0c060c
0c07fe
1e060c
1d860c
1cc60c
3cc60c
2c0e0c
2c0c0c
6c0c0c
4c0c0c
8c080c
0c181c
0c1018
0c3018
0c2038
0c41f0
0c8060
ENDCHAR
STARTCHAR ch-357
ENCODING 357
SWIDTH 1000 0
DWIDTH 24 0
BBX 24 24 0 -3
BITMAP
001c00
001800
001800
001818
3ffffc
001800
081840
041870
061860
0318c0
031880
001906
ffffff
007a00
00d900
00d980
0198c0
031860
061838
0c181f
30180e
c01806
001800
001800
ENDCHAR
STARTCHAR ch-362
ENCODING 362
SWIDTH 1000 0
DWIDTH 24 0
BBX 24 24 0 -3
BITMAP
0e01c0
0c0180
0c0180
0c0180
0d9180
ffdda0
0c1998
0c198c
0e1986
1d1987
1d9183
1db190
3c219c
2c4198
2c0fb0
6c0330
4c0060
8c00c0
0c0180
0c0300
0c0600
0c0c00
0c3000
0cc000
ENDCHAR
STARTCHAR ch-365
ENCODING 365
SWIDTH 1000 0
DWIDTH 24 0
BBX 24 24 0 -3
BITMAP
0e01c0
0c0180
0c0180
0c0180
0cc186
ffffff
0c0000
0c0000
0c0000
1e0860
1d8ff0
1ccc60
3ccc60
2c0c60
2c0c60
6c0c60
4c0c60
8c0c60
0c0c62
0c1862
0c1862
0c1063
0c207f
0cc03e
ENDCHAR
STARTCHAR ch-367
ENCODING 367
SWIDTH 1000 0
DWIDTH 24 0
BBX 24 24 0 -3
BITMAP
0e0000
0c0006
0c7fff
0c0040
0d8070
ffc060
0c00c0
0c02c0
0c0380
1e0300
1d8340
1cc730
3cc718
2c0b0c
2c1306
6c2307
4c4303
8d8303
0c0300
0c0300
0c0300
0c0300
0c0300
0c0300
ENDCHAR
STARTCHAR ch-368
ENCODING 368
SWIDTH 1000 0
DWIDTH 24 0
BBX 24 24 0 -3
BITMAP
001c00
001800
001800
001800
00180c
7ffffe
007a00
00fa00
00d900
01d980
0398c0
071870
0e183f
38181e
c01806
001800
000000
000000
000000
084410
10420c
30c206
e0c307
c0c303
ENDCHAR
STARTCHAR ch-369
ENCODING 369
SWIDTH 1000 0
DWIDTH 24 0
BBX 24 24 0 -3
BITMAP
001c00
001800
001806
ffffff
001800
081830
0ffff8
0c1830
0c1830
0c1830
0ffff0
0c1830
0c1830
0c1830
0ffff0
0c7a30
00d900
019980
0318c0
061870
0c183f
30181e
c01806
001800
ENDCHAR
STARTCHAR ch-370
ENCODING 370
SWIDTH 1000 0
DWIDTH 24 0
BBX 24 24 0 -3
BITMAP
080030
0ffff8
0c0030
0c0030
0c0030
0ffff0
0c0030
0c0030
0c0030
0ffff0
0c0030
001c00
001800
001806
ffffff
007a00
00f900
00d980
0198c0
031870
06183f
18181e
e01806
001800
ENDCHAR
STARTCHAR ch-371
ENCODING 371
SWIDTH 1000 0
DWIDTH 24 0
BBX 24 24 0 -3
BITMAP
001c00
001800
001800
00180c
7ffffe
007a00
00fa00
00d900
019980
0318c0
061870
0c183f
30181e
c40066
07fff0
060060
060060
060060
07ffe0
060060
060060
060060
07ffe0
060060
ENDCHAR
STARTCHAR ch-373
ENCODING 373
SWIDTH 1000 0
DWIDTH 24 0
BBX 24 24 0 -3
BITMAP
0e0400
0c0700
0c0600
0c0600
0d8c0c
ffcffe
0c08c0
0c18c0
0c10c0
1e20c0
1d00c0
1d80c6
3dbfff
2c00c0
2c00c0
6c00c0
4c00c0
8c00c0
0c00c0
0c00c0
0c00c0
0c00c0
0c00c0
0c00c0
ENDCHAR
STARTCHAR ch-375
ENCODING 375
SWIDTH 1000 0
DWIDTH 24 0
BBX 24 24 0 -3
BITMAP
0e0000
0c200c
0c3ffe
0c318c
0db18c
fff18c
0c318c
0c318c
0c318c
1e318c
1d318c
1dbffc
3db00c
2c300c
2c3000
6c3000
4c3000
8c3000
0c3002
0c3002
0c3002
0c3003
0c3fff
0c1ffe
ENDCHAR
STARTCHAR ch-380
ENCODING 380
SWIDTH 1000 0
DWIDTH 24 0
BBX 24 24 0 -3
BITMAP
0e0018
0c1ffc
0c0018
0c0030
0d8420
ffc340
0c0180
0c0180
0c0006
1e3fff
1d8186
1cc184
3cc188
2c0180
2c0180
6c0180
4c0180
8c0180
0c0180
0c0180
0c0180
0c0180
0c0f80
0c0300
ENDCHAR
STARTCHAR ch-382
ENCODING 382
SWIDTH 1000 0
DWIDTH 24 0
BBX 24 24 0 -3
BITMAP
0e0040
0c0840
0c0e40
0c0c40
0d8c20
ffd820
0c1830
0c1018
0c301c
1c200f
1e4406
1d8700
3cc600
2cc600
2c0400
6c0c00
4c0c20
8c0810
0c0818
0c100c
0c10fc
0cff86
0c7806
0c4006
ENDCHAR
STARTCHAR ch-383
ENCODING 383
SWIDTH 1000 0
DWIDTH 24 0
BBX 24 24 0 -3
BITMAP
0e0000
0c2006
0c3fff
0c3000
0db000
fff000
0c3018
0c3ffc
0c3218
1e3218
1d3218
1db230
3db330
2c3120
2c3160
6c21c0
4c6080
8c61c0
0c4160
0cc330
0c8638
0d0c1f
0c180e
0c6006
ENDCHAR
STARTCHAR ch-389
ENCODING 389
SWIDTH 1000 0
DWIDTH 24 0
BBX 24 24 0 -3
BITMAP
0e0000
0c000c
0c3ffe
0c0630
0d8630
ffc630
0c0630
0c0630
0c0630
1e0636
1dbfff
1cc630
3cc630
2c0630
2c0630
6c0630
4c0e30
8c0c30
0c0c30
0c0830
0c1830
0c1030
0c2030
0c4030
ENDCHAR
STARTCHAR ch-391
ENCODING 391
SWIDTH 1000 0
DWIDTH 24 0
BBX 24 24 0 -3
BITMAP
0e38e0
0c30c0
0c30c0
0c30c0
0db0c0
fff0c0
0c30c4
0c30c7
0c30c6
1e36cc
1d3fd8
1db0e0
3db0c0
2c30c0
2c30c0
6c30c0
4c30c0
8c30c0
0c30c2
0c30c2
0c3ec2
0df8c3
0ce0ff
0c807e
ENDCHAR
STARTCHAR ch-393
ENCODING 393
SWIDTH 1000 0
DWIDTH 24 0
BBX 24 24 0 -3
BITMAP
0e0000
0c000c
0c3ffe
0c0180
0d8180
ffc180
0c0180
0c0180
0c0180
1c0180
1e018c
1dbffe
3cc180
2cc180
2c0180
6c0180
4c0180
8c0180
0c0180
0c0180
0c0180
0c0186
0c7fff
0c0000
ENDCHAR
STARTCHAR ch-395
ENCODING 395
SWIDTH 1000 0
DWIDTH 24 0
BBX 24 24 0 -3
BITMAP
0e0380
0c0300
0c0300
0c0300
0d8306
ffffff
0c0600
0c0600
0c0600
1e060c
1d87fe
1cc60c
3cc60c
2c060c
2c060c
6c060c
4c0c0c
8c0c0c
0c0c1c
0c1818
0c1818
0c3038
0c61f0
0d8060
ENDCHAR
STARTCHAR ch-396
ENCODING 396
SWIDTH 1000 0
DWIDTH 24 0
BBX 24 24 0 -3
BITMAP
0e0840
0c0e40
0c0c40
0c0c40
0d8820
ffc820
0c1830
0c1010
0c1018
1c200c
1e3fff
1d4636
3d8630
2d8630
2c0630
6c0630
4c0c30
8c0c30
0c0c30
0c0830
0c1870
0c1060
0c23e0
0cc0c0
ENDCHAR
STARTCHAR ch-400
ENCODING 400
SWIDTH 1000 0
DWIDTH 24 0
BBX 24 24 0 -3
BITMAP
0e0018
0c007c
0c11e0
0c1f00
0d9800
ffd800
0c1800
0c1806
0c1fff
1e1860
1d9860
1cd860
3cd860
2c1860
2c1860
6c1060
4c3060
8c3060
0c2060
0c6060
0c4060
0c8060
0d0060
0c0060
ENDCHAR
STARTCHAR ch-405
ENCODING 405
SWIDTH 1000 0
DWIDTH 24 0
BBX 24 24 0 -3
BITMAP
0e0380
0c0300
0c0300
0c0300
0d9300
ffd306
0c1fff
0c3306
0c6304
1e6308
1d8300
1cc2e0
3cc6c0
2c06c0
2c06c0
6c06c0
4c04c0
8c0cc0
0c0cc2
0c08c2
0c18c2
0c10c3
0c20ff
0cc07e
ENDCHAR
STARTCHAR ch-407
ENCODING 407
SWIDTH 1000 0
DWIDTH 24 0
BBX 24 24 0 -3
BITMAP
0701c0
060180
060180
060180
066186
ffffff
060180
060180
0e03c0
0f03c0
0ec7a0
1e65a0
166db0
160998
36199c
26118f
46218e
864186
068180
060180
060180
060180
060180
060180
ENDCHAR
STARTCHAR ch-410
ENCODING 410
SWIDTH 1000 0
DWIDTH 24 0
BBX 24 24 0 -3
BITMAP
0e0400
0c0700
0c0600
0c0600
0d8c00
ffcc06
0c1fff
0c1020
0c2838
1c4830
1e0830
1d8460
3cc460
2cc640
2c02c0
6c0380
4c0100
8c0380
0c06c0
0c0460
0c0838
0c101f
0c200e
0cc006
ENDCHAR
STARTCHAR ch-412
ENCODING 412
SWIDTH 1000 0
DWIDTH 24 0
BBX 24 24 0 -3
BITMAP
080030
0ffff8
0c1830
0c1830
0c1830
0ffff0
0c1830
0c1830
0c1830
0c1830
0ffff0
0c1830
001800
001806
ffffff
007a00
00d900
01d880
0398c0
071870
0c183f
30181e
c01806
001800
ENDCHAR
STARTCHAR ch-413
ENCODING 413
SWIDTH 1000 0
DWIDTH 24 0
BBX 24 24 0 -3
BITMAP
0e01c0
0c0180
0c0180
0c0180
0cc186
ffffff
0c0180
0c0180
0c0180
1e018c
1dbffe
1cc80c
3cc818
2c0418
2c0430
6c0630
4c0260
8c03c0
0c0180
0c03c0
0c0670
0c0c3f
0c301e
0cc006
ENDCHAR
STARTCHAR ch-416
ENCODING 416
SWIDTH 1000 0
DWIDTH 24 0
BBX 24 24 0 -3
BITMAP
0e0700
0c0600
0c0600
0c0630
0dbff8
ffc630
0c0630
0c0630
0e0632
1d8432
1ccc33
1cc83f
3c119e
2c6180
2c0180
6c0186
4c7fff
8c0180
0c0180
0c0180
0c0180
0c0180
0c0180
0c0180
ENDCHAR
STARTCHAR ch-417
ENCODING 417
SWIDTH 1000 0
DWIDTH 24 0
BBX 24 24 0 -3
BITMAP
0e0038
0c01b0
0c07f0
0c3e30
0d8630
ffc630
0c0630
0c0630
0c0630
1e0636
1dbfff
1cc630
3cc630
2c0630
2c0630
6c0e30
4c0c30
8c0c30
0c0830
0c1830
0c1030
0c2030
0c4030
0c0030
ENDCHAR
STARTCHAR ch-418
ENCODING 418
SWIDTH 1000 0
DWIDTH 24 0
BBX 24 24 0 -3
BITMAP
0e0000
0c200c
0c3ffe
0c3000
0db010
fff01c
0c3418
0c3218
0c3130
1e31b0
1d30a0
1db0e0
3db040
2c30e0
2c30b0
6c31b0
4c3118
8c3218
0c3418
0c3800
0c3006
0c3fff
0c3000
0c3000
ENDCHAR
STARTCHAR ch-422
ENCODING 422
SWIDTH 1000 0
DWIDTH 24 0
BBX 24 24 0 -3
BITMAP
0e0006
0c7fff
0c0000
0c0000
0d900c
ffdffe
0c180c
0c180c
0c180c
1e180c
1d980c
1cdffc
3cd80c
2c180c
2c1800
6c1800
4c1800
8c3000
0c3000
0c2000
0c6000
0c4000
0c8000
0d0000
ENDCHAR
STARTCHAR ch-425
ENCODING 425
SWIDTH 1000 0
DWIDTH 24 0
BBX 24 24 0 -3
BITMAP
001c00
001800
00180c
7ffffe
007a00
00f900
00d980
0198c0
031870
06183f
18181e
608006
00e300
01c0e0
038038
07201c
0c380e
303006
c06100
0040c0
008070
0fffb8
07e018
040018
ENDCHAR
STARTCHAR ch-431
ENCODING 431
SWIDTH 1000 0
DWIDTH 24 0
BBX 24 24 0 -3
BITMAP
0e01c0
0c0180
0c0180
0c0180
0d8180
ffc186
0c3fff
0c0180
0c0180
1e0180
1d8180
1cc180
3cd18c
2c1ffe
2c180c
6c180c
4c180c
8c180c
0c180c
0c180c
0c180c
0c1ffc
0c180c
0c180c
ENDCHAR
STARTCHAR ch-435
ENCODING 435
SWIDTH 1000 0
DWIDTH 24 0
BBX 24 24 0 -3
BITMAP
0e0000
0c100c
0c1ffe
0c180c
0d980c
ffd80c
0c180c
0c180c
0c180c
1e180c
1d980c
1cd80c
3cd80c
2c1ffc
2c180c
6c0000
4c0000
8c0820
0c0e10
0c0c18
0c180c
0c100e
0c2006
0c4006
ENDCHAR
STARTCHAR ch-436
ENCODING 436
SWIDTH 1000 0
DWIDTH 24 0
BBX 24 24 0 -3
BITMAP
0e100c
0c1ffe
0c180c
0c180c
0d980c
ffd80c
0c180c
0c1ffc
0e180c
1d8000
1cc000
1cc006
3c3fff
2c0306
2c0306
6c0306
4c0306
8c0706
0c0606
0c0e0e
0c0c0c
0c180c
0c307c
0cc018
ENDCHAR
STARTCHAR ch-438
ENCODING 438
SWIDTH 1000 0
DWIDTH 24 0
BBX 24 24 0 -3
BITMAP
070000
060000
063206
7ffbff
063306
063306
0c3306
0c7306
186306
1863fe
33e306
60c000
801c00
001800
001806
ffffff
007a00
00d900
01d8c0
039870
06183f
18181e
e01806
001800
ENDCHAR
STARTCHAR ch-439
ENCODING 439
SWIDTH 1000 0
DWIDTH 24 0
BBX 24 24 0 -3
BITMAP
1c7000
186000
186000
186000
1b6646
ffff7f
186666
186666
186666
1c6666
3a6666
3b6666
3b6666
386666
786666
58c666
58c666
98c666
18cc66
188c66
198c7e
190c66
197c66
1a1800
ENDCHAR
STARTCHAR ch-440
ENCODING 440
SWIDTH 1000 0
DWIDTH 24 0
BBX 24 24 0 -3
BITMAP
0e0800
0c0e00
0c0c00
0c0c00
0d9806
ffdfff
0c3006
0c2006
0c4006
1e10c6
1d9fe6
1cd8c6
3cd8c6
2c18c6
2c18c6
6c18c6
4c1fc6
8c18c6
0c0006
0c000e
0c000c
0c001c
0c00f8
0c0030
ENDCHAR
STARTCHAR ch-441
ENCODING 441
SWIDTH 1000 0
DWIDTH 24 0
BBX 24 24 0 -3
BITMAP
0e0800
0c0e00
0c0c00
0c0c0c
0d9ffe
ffd80c
0c300c
0c200c
0c7f8c
1c818c
1e018c
1d018c
3da18c
2dbf8c
2c301c
6c3018
4c30f8
8c3030
0c3002
0c3002
0c3002
0c3003
0c3fff
0c1ffe
ENDCHAR
STARTCHAR ch-449
ENCODING 449
SWIDTH 1000 0
DWIDTH 24 0
BBX 24 24 0 -3
BITMAP
0e01c0
0c0180
0c0180
0c1180
0d9186
ffffff
0c3006
0c6004
0c6008
1e0e00
1d8c00
1ccc10
3ccc1c
2c0c38
2c0c60
6c0d80
4c0e00
8c0c00
0c0c04
0c0c04
0c0c04
0c0c06
0c0ffe
0c07fc
ENDCHAR
STARTCHAR ch-452
ENCODING 452
SWIDTH 1000 0
DWIDTH 24 0
BBX 24 24 0 -3
BITMAP
1c0000
180006
19ffff
180300
1b0300
ff8300
18430c
187ffe
18630c
3c630c
3a630c
3b628c
3b664c
78646c
58686c
58706c
58600c
98600c
18600c
18600c
18600c
18600c
18607c
186018
ENDCHAR
STARTCHAR ch-454
ENCODING 454
SWIDTH 1000 0
DWIDTH 24 0
BBX 24 24 0 -3
BITMAP
0e01c0
0c0180
0c0180
0c0180
0d8180
ffc18c
0c3ffe
0c0000
0c0010
1e101c
1d8818
1cc818
3ccc18
2c0c10
2c0430
6c0630
4c0620
8c0620
0c0620
0c0040
0c0040
0c0046
0c7fff
0c0000
ENDCHAR
STARTCHAR ch-458
ENCODING 458
SWIDTH 1000 0
DWIDTH 24 0
BBX 24 24 0 -3
BITMAP
0e0800
0c0e00
0c0c30
0c0ff8
0d8830
ffd860
0c1460
0c22c0
0c4380
1e0100
1d8380
1cc6c0
3ccc70
2c183f
2c321e
6cc186
4c00c0
8c00c0
0c0000
0c1800
0c0700
0c01c0
0c00e0
0c0060
ENDCHAR
STARTCHAR ch-462
ENCODING 462
SWIDTH 1000 0
DWIDTH 24 0
BBX 24 24 0 -3
BITMAP
0e041c
0c0718
0c0618
0c0618
0d8c18
ffcc18
0c0c1a
0c1bff
0c1818
1e3818
1d5a18
1d9918
3d9998
2c1998
2c1998
6c1818
4c1818
8c1818
0c1818
0c1818
0c1818
0c1818
0c18f8
0c1830
ENDCHAR
STARTCHAR ch-463
ENCODING 463
SWIDTH 1000 0
DWIDTH 24 0
BBX 24 24 0 -3
BITMAP
0e0100
0c01c0
0c0180
0c0180
0d8100
ffd206
0c1fff
0c1806
0c1806
1e1806
1d9806
1cd806
3cd806
2c1ffe
2c1806
6c1806
4c1806
8c1806
0c1806
0c1806
0c1806
0c1ffe
0c1806
0c1806
ENDCHAR
STARTCHAR ch-464
ENCODING 464
SWIDTH 1000 0
DWIDTH 24 0
BBX 24 24 0 -3
BITMAP
01c1c0
018180
01818c
7ffffe
018180
018180
018180
01ff80
018180
018180
018180
01ff80
001800
001806
ffffff
007a00
00d900
00d980
0198c0
031870
06183f
18181e
e01806
001800
ENDCHAR
STARTCHAR ch-465
ENCODING 465
SWIDTH 1000 0
DWIDTH 24 0
BBX 24 24 0 -3
BITMAP
0e0e38
0c0c30
0c0c30
0c0c30
0d8c36
ffffff
0c0c30
0c0c30
0c0c30
1e0c30
1d8c30
1ccc30
3ccc30
2c0ff0
2c0c30
6c0c30
4c0c30
8c0c30
0c0c30
0c0c30
0c0c30
0c0ff0
0c0c30
0c0c30
ENDCHAR
STARTCHAR ch-467
ENCODING 467
SWIDTH 1000 0
DWIDTH 24 0
BBX 24 24 0 -3
BITMAP
080e00
060c00
030c00
430c60
307ff0
180c60
190c60
020862
0c1862
781063
18207f
18403e
1d9c00
0c1800
001806
ffffff
007a00
00d900
0198c0
031870
0c183f
30181e
c01806
001800
ENDCHAR
STARTCHAR ch-468
ENCODING 468
SWIDTH 1000 0
DWIDTH 24 0
BBX 24 24 0 -3
BITMAP
0000c0
0fffe0
000300
006400
001800
000c0c
7ffffe
006c18
00cc20
018c40
030c00
0c0c00
700000
001c00
001806
ffffff
007a00
00d900
01d8c0
039870
06183f
18181e
e01806
001800
ENDCHAR
STARTCHAR ch-472
ENCODING 472
SWIDTH 1000 0
DWIDTH 24 0
BBX 24 24 0 -3
BITMAP
0e0000
0c0006
0c7fff
0c0180
0d8180
ffc300
0c0300
0c0200
0e0600
1d8400
1ccc00
1cc80c
3c1ffe
2c1c0c
2c2c0c
6c4c0c
4c8c0c
8d0c0c
0c0c0c
0c0c0c
0c0c0c
0c0ffc
0c0c0c
0c0c0c
ENDCHAR
STARTCHAR ch-474
ENCODING 474
SWIDTH 1000 0
DWIDTH 24 0
BBX 24 24 0 -3
BITMAP
0e01c0
0c0180
0c0180
0c0180
0d8180
ffc180
0c2186
0c3fff
0c3186
1e3186
1d3186
1db186
3db186
2c3186
2c3ffe
6c3186
4c3186
8c3186
0c3186
0c3186
0c3186
0c3ffe
0c3006
0c3006
ENDCHAR
STARTCHAR ch-477
ENCODING 477
SWIDTH 1000 0
DWIDTH 24 0
BBX 24 24 0 -3
BITMAP
0e0018
0c007c
0c11e0
0c1f00
0d9800
ffd800
0c1806
0c1fff
0c1860
1e1860
1d9860
1cdb60
3cd8e0
2c1870
2c187c
6c106e
4c3066
8c3060
0c2060
0c6060
0c4060
0c8060
0d0060
0c0060
ENDCHAR
STARTCHAR ch-478
ENCODING 478
SWIDTH 1000 0
DWIDTH 24 0
BBX 24 24 0 -3
BITMAP
0e0400
0c0700
0c0600
0c0600
0d8c06
ffcfff
0c1b00
0c1300
0c2300
1e430c
1d83fe
1cc300
3cc300
2c0300
2c0300
6c0306
4c03ff
8c0300
0c0300
0c0300
0c0300
0c0300
0c0300
0c0300
ENDCHAR
STARTCHAR ch-482
ENCODING 482
SWIDTH 1000 0
DWIDTH 24 0
BBX 24 24 0 -3
BITMAP
0e0018
0c21fc
0c3fc0
0c30c0
0db0c0
fff0c0
0c30c0
0c30c0
0c30cc
1e3ffe
1d30c0
1db0c0
3db0c0
2c30e0
2c3060
6c3060
4c3060
8c3672
0df832
0ce032
0c801a
0c019f
0cffcf
0c0006
ENDCHAR
STARTCHAR ch-484
ENCODING 484
SWIDTH 1000 0
DWIDTH 24 0
BBX 24 24 0 -3
BITMAP
0e1030
0c1ff8
0c1830
0c1830
0d9830
ffd830
0c1830
0c1830
0c1ff0
1e1830
1d9830
1cd830
3cd830
2c1830
2c1830
6c1ff0
4c1830
8c1830
0c1830
0c1830
0c1830
0c1836
0cffff
0c0000
ENDCHAR
STARTCHAR ch-487
ENCODING 487
SWIDTH 1000 0
DWIDTH 24 0
BBX 24 24 0 -3
BITMAP
0e0018
0c20fc
0c3fe0
0c3020
0db320
fff320
0c3320
0c3320
0c3320
1e3320
1d3320
1db330
3db310
2c3310
2c3310
6c3310
4c3318
8c2318
0c6348
0c634c
0c43ec
0cdf6f
0c8c66
0d0006
ENDCHAR
STARTCHAR ch-489
ENCODING 489
SWIDTH 1000 0
DWIDTH 24 0
BBX 24 24 0 -3
BITMAP
0e200c
0c3ffe
0c3000
0c3100
0db1c0
fff180
0c3198
0c31fc
0c3118
1e3318
1d3230
1db430
3db060
2c3070
2c30d0
6c3098
4c310c
8c320f
0c3406
0c3000
0c3000
0c3006
0c3fff
0c3000
ENDCHAR
STARTCHAR ch-492
ENCODING 492
SWIDTH 1000 0
DWIDTH 24 0
BBX 24 24 0 -3
BITMAP
001c00
001800
001806
ffffff
001800
001800
101818
1ffffc
181818
1a1898
1999d8
189918
181a18
1ffff8
187a18
00da00
00d900
019980
0318c0
061870
0c183f
30181e
c01806
001800
ENDCHAR
STARTCHAR ch-494
ENCODING 494
SWIDTH 1000 0
DWIDTH 24 0
BBX 24 24 0 -3
BITMAP
0e01c0
0c0180
0c398e
0c318c
0db18c
fff18c
0c318c
0c318c
0c318c
1e3ffc
1db18c
1cc180
3cc180
2c0180
2c7187
6c6186
4c6186
8c6186
0c6186
0c6186
0c6186
0c7ffe
0c6006
0c6006
ENDCHAR
STARTCHAR ch-495
ENCODING 495
SWIDTH 1000 0
DWIDTH 24 0
BBX 24 24 0 -3
BITMAP
0e0000
0c0006
0c7fff
0c0018
0d8018
ffc018
0c2198
0c3fd8
0c3198
1e3198
1d3198
1db198
3db198
2c3198
2c3f98
6c3198
4c3018
8c0018
0c0018
0c0018
0c0018
0c0018
0c00f8
0c0030
ENDCHAR
STARTCHAR ch-497
ENCODING 497
SWIDTH 1000 0
DWIDTH 24 0
BBX 24 24 0 -3
BITMAP
0e0800
0c0600
0c0300
0c0380
0d8180
ffc00c
0c3ffe
0c0180
0c0180
1c0180
1e0180
1d0180
3d818c
2dbffe
2c0180
6c0180
4c0180
8c0180
0c0180
0c0180
0c0180
0c0186
0cffff
0c0000
ENDCHAR
STARTCHAR ch-499
ENCODING 499
SWIDTH 1000 0
DWIDTH 24 0
BBX 24 24 0 -3
BITMAP
1c0600
184f00
187846
18407f
1b4746
ffc646
184646
184646
184646
3c4646
3a4646
3b4646
3b4646
784646
584646
584646
99fe46
18e646
18865e
180c4c
180c40
181840
183040
18c040
ENDCHAR
STARTCHAR ch-500
ENCODING 500
SWIDTH 1000 0
DWIDTH 24 0
BBX 24 24 0 -3
BITMAP
038380
03030c
3b031e
333338
33fbc0
330300
330302
330302
333b03
ffc3ff
7c01fe
401c00
001800
001806
ffffff
007a00
00d900
01d980
0398c0
071870
0c183f
30181e
c01806
001800
ENDCHAR
STARTCHAR ch-501
ENCODING 501
SWIDTH 1000 0
DWIDTH 24 0
BBX 24 24 0 -3
BITMAP
0e200c
0c3ffe
0c324c
0c324c
0db24c
fff24c
0c324c
0c324c
0c324c
1e324c
1dffff
1db24c
3db24c
2c324c
2c324c
6c324c
4c324c
8c324c
0c324c
0c324c
0c324c
0c324c
0c327c
0c3018
ENDCHAR
STARTCHAR ch-507
ENCODING 507
SWIDTH 1000 0
DWIDTH 24 0
BBX 24 24 0 -3
BITMAP
001c00
001800
001800
001806
ffffff
007a00
00d900
00d980
0198c0
031870
06183f
18181e
e200c6
03ffe0
0300c0
0300c0
03ffc0
0300c0
0300c0
03ffc0
0300c0
0300c6
ffffff
000000
ENDCHAR
STARTCHAR ch-510
ENCODING 510
SWIDTH 1000 0
DWIDTH 24 0
BBX 24 24 0 -3
BITMAP
0e0000
0c000c
0c7ffe
0c0180
0d8180
ffc180
0c0180
0c3980
0c3180
1e3180
1d318c
1db1fe
3db180
2c3180
2c3180
6c3180
4c3180
8c3180
0c3180
0c3180
0c3180
0c3186
0dffff
0c0000
ENDCHAR
STARTCHAR ch-511
ENCODING 511
SWIDTH 1000 0
DWIDTH 24 0
BBX 24 24 0 -3
BITMAP
0e01c0
0c0180
0c0180
0c0186
0d7fff
ff8180
0c0180
0c0180
0c218c
1c3ffe
1e318c
1d318c
3db18c
2db18c
2c318c
6c318c
4c318c
8c318c
0c318c
0c31bc
0c3198
0c0180
0c0180
0c0180
ENDCHAR
ENDFONT
